<svg xmlns="http://www.w3.org/2000/svg" viewBox="0 0 1024 1024" width="1024" height="1024"><defs><linearGradient id="bg" gradientUnits="userSpaceOnUse" x1="0" y1="0" x2="1024" y2="1024"><stop offset="0" stop-color="#0052FF"/><stop offset="1" stop-color="#4D7CFF"/></linearGradient></defs><path d="M1024.00,512.00 L1023.93,631.24 L1023.72,669.32 L1023.37,696.98 L1022.88,719.47 L1022.24,738.75 L1021.47,755.78 L1020.55,771.13 L1019.49,785.16 L1018.29,798.12 L1016.95,810.17 L1015.46,821.46 L1013.83,832.08 L1012.04,842.12 L1010.12,851.63 L1008.04,860.66 L1005.81,869.27 L1003.43,877.48 L1000.90,885.33 L998.22,892.83 L995.37,900.02 L992.37,906.92 L989.21,913.53 L985.88,919.87 L982.38,925.96 L978.72,931.81 L974.88,937.42 L970.87,942.81 L966.67,947.99 L962.29,952.96 L957.72,957.72 L952.96,962.29 L947.99,966.67 L942.81,970.87 L937.42,974.88 L931.81,978.72 L925.96,982.38 L919.87,985.88 L913.53,989.21 L906.92,992.37 L900.02,995.37 L892.83,998.22 L885.33,1000.90 L877.48,1003.43 L869.27,1005.81 L860.66,1008.04 L851.63,1010.12 L842.12,1012.04 L832.08,1013.83 L821.46,1015.46 L810.17,1016.95 L798.12,1018.29 L785.16,1019.49 L771.13,1020.55 L755.78,1021.47 L738.75,1022.24 L719.47,1022.88 L696.98,1023.37 L669.32,1023.72 L631.24,1023.93 L512.00,1024.00 L392.76,1023.93 L354.68,1023.72 L327.02,1023.37 L304.53,1022.88 L285.25,1022.24 L268.22,1021.47 L252.87,1020.55 L238.84,1019.49 L225.88,1018.29 L213.83,1016.95 L202.54,1015.46 L191.92,1013.83 L181.88,1012.04 L172.37,1010.12 L163.34,1008.04 L154.73,1005.81 L146.52,1003.43 L138.67,1000.90 L131.17,998.22 L123.98,995.37 L117.08,992.37 L110.47,989.21 L104.13,985.88 L98.04,982.38 L92.19,978.72 L86.58,974.88 L81.19,970.87 L76.01,966.67 L71.04,962.29 L66.28,957.72 L61.71,952.96 L57.33,947.99 L53.13,942.81 L49.12,937.42 L45.28,931.81 L41.62,925.96 L38.12,919.87 L34.79,913.53 L31.63,906.92 L28.63,900.02 L25.78,892.83 L23.10,885.33 L20.57,877.48 L18.19,869.27 L15.96,860.66 L13.88,851.63 L11.96,842.12 L10.17,832.08 L8.54,821.46 L7.05,810.17 L5.71,798.12 L4.51,785.16 L3.45,771.13 L2.53,755.78 L1.76,738.75 L1.12,719.47 L0.63,696.98 L0.28,669.32 L0.07,631.24 L0.00,512.00 L0.07,392.76 L0.28,354.68 L0.63,327.02 L1.12,304.53 L1.76,285.25 L2.53,268.22 L3.45,252.87 L4.51,238.84 L5.71,225.88 L7.05,213.83 L8.54,202.54 L10.17,191.92 L11.96,181.88 L13.88,172.37 L15.96,163.34 L18.19,154.73 L20.57,146.52 L23.10,138.67 L25.78,131.17 L28.63,123.98 L31.63,117.08 L34.79,110.47 L38.12,104.13 L41.62,98.04 L45.28,92.19 L49.12,86.58 L53.13,81.19 L57.33,76.01 L61.71,71.04 L66.28,66.28 L71.04,61.71 L76.01,57.33 L81.19,53.13 L86.58,49.12 L92.19,45.28 L98.04,41.62 L104.13,38.12 L110.47,34.79 L117.08,31.63 L123.98,28.63 L131.17,25.78 L138.67,23.10 L146.52,20.57 L154.73,18.19 L163.34,15.96 L172.37,13.88 L181.88,11.96 L191.92,10.17 L202.54,8.54 L213.83,7.05 L225.88,5.71 L238.84,4.51 L252.87,3.45 L268.22,2.53 L285.25,1.76 L304.53,1.12 L327.02,0.63 L354.68,0.28 L392.76,0.07 L512.00,0.00 L631.24,0.07 L669.32,0.28 L696.98,0.63 L719.47,1.12 L738.75,1.76 L755.78,2.53 L771.13,3.45 L785.16,4.51 L798.12,5.71 L810.17,7.05 L821.46,8.54 L832.08,10.17 L842.12,11.96 L851.63,13.88 L860.66,15.96 L869.27,18.19 L877.48,20.57 L885.33,23.10 L892.83,25.78 L900.02,28.63 L906.92,31.63 L913.53,34.79 L919.87,38.12 L925.96,41.62 L931.81,45.28 L937.42,49.12 L942.81,53.13 L947.99,57.33 L952.96,61.71 L957.72,66.28 L962.29,71.04 L966.67,76.01 L970.87,81.19 L974.88,86.58 L978.72,92.19 L982.38,98.04 L985.88,104.13 L989.21,110.47 L992.37,117.08 L995.37,123.98 L998.22,131.17 L1000.90,138.67 L1003.43,146.52 L1005.81,154.73 L1008.04,163.34 L1010.12,172.37 L1012.04,181.88 L1013.83,191.92 L1015.46,202.54 L1016.95,213.83 L1018.29,225.88 L1019.49,238.84 L1020.55,252.87 L1021.47,268.22 L1022.24,285.25 L1022.88,304.53 L1023.37,327.02 L1023.72,354.68 L1023.93,392.76 L1024.00,512.00 Z" fill="url(#bg)"/><g transform="translate(77.77,95.59) scale(1.620253)"><path d="M178,126 V386" fill="none" stroke="#FFFFFF" stroke-width="54" stroke-linecap="round" stroke-linejoin="round"/><path d="M178,126 H286 A72,72 0 0 1 286,270 H178" fill="none" stroke="#FFFFFF" stroke-width="54" stroke-linecap="round" stroke-linejoin="round"/><path d="M214,270 C286,296 312,344 350,388" fill="none" stroke="#FFFFFF" stroke-width="54" stroke-linecap="round" stroke-linejoin="round"/></g></svg>