<svg xmlns="http://www.w3.org/2000/svg" viewBox="0 0 421.13 200.0" width="421.13" height="200.0"><defs><linearGradient id="g" gradientUnits="userSpaceOnUse" x1="32.0" y1="22.0" x2="147.51898734177217" y2="178.0"><stop offset="0" stop-color="#0052FF"/><stop offset="1" stop-color="#4D7CFF"/></linearGradient></defs><rect width="421.13" height="200.0" fill="#FFFFFF"/><g transform="translate(-42.544,-26.873) scale(0.493671)"><path d="M178,126 V386" fill="none" stroke="url(#g)" stroke-width="54" stroke-linecap="round" stroke-linejoin="round"/><path d="M178,126 H286 A72,72 0 0 1 286,270 H178" fill="none" stroke="url(#g)" stroke-width="54" stroke-linecap="round" stroke-linejoin="round"/><path d="M214,270 C286,296 312,344 350,388" fill="none" stroke="url(#g)" stroke-width="54" stroke-linecap="round" stroke-linejoin="round"/></g><g transform="translate(188.079,129.203)"><g transform="translate(0.000,0) scale(0.116888,-0.116888)"><path d="M66 0V475H156V0ZM156 271 122 286Q122 377 164.0 431.0Q206 485 285 485Q321 485 350.0 472.5Q379 460 404 431L345 370Q330 386 312.0 393.0Q294 400 270 400Q220 400 188.0 368.0Q156 336 156 271Z" fill="#0B1124" stroke="#0B1124" stroke-width="20" stroke-linejoin="round"/></g><g transform="translate(48.976,0) scale(0.116888,-0.116888)"><path d="M67 0V475H157V0ZM112 570Q87 570 71.0 586.5Q55 603 55 628Q55 652 71.0 668.5Q87 685 112 685Q137 685 153.0 668.5Q169 652 169 628Q169 603 153.0 586.5Q137 570 112 570Z" fill="#0B1124" stroke="#0B1124" stroke-width="20" stroke-linejoin="round"/></g><g transform="translate(75.159,0) scale(0.116888,-0.116888)"><path d="M229 0 11 475H111L286 74H228L404 475H500L282 0Z" fill="#0B1124" stroke="#0B1124" stroke-width="20" stroke-linejoin="round"/></g><g transform="translate(134.888,0) scale(0.116888,-0.116888)"><path d="M283 -10Q213 -10 157.0 23.0Q101 56 68.0 112.5Q35 169 35 239Q35 308 68.0 363.5Q101 419 157.0 452.0Q213 485 283 485Q352 485 408.5 452.5Q465 420 498.0 364.0Q531 308 531 239Q531 169 498.0 112.5Q465 56 408.5 23.0Q352 -10 283 -10ZM283 77Q328 77 363.0 98.0Q398 119 418.0 155.5Q438 192 438 239Q438 285 417.5 321.0Q397 357 362.5 377.5Q328 398 283 398Q238 398 203.0 377.5Q168 357 148.0 321.0Q128 285 128 239Q128 192 148.0 155.5Q168 119 203.0 98.0Q238 77 283 77Z" fill="#0B1124" stroke="#0B1124" stroke-width="20" stroke-linejoin="round"/></g></g></svg>